<svg width="100" height="60" viewBox="0 0 68 46" fill="none" xmlns="http://www.w3.org/2000/svg"><path d="M16.992 42.952v-2.736c0-1.049-.635-1.733-1.723-1.733-.543 0-1.133.183-1.54.775-.318-.501-.77-.775-1.45-.775-.454 0-.907.137-1.27.639v-.548h-.951v4.378h.952v-2.417c0-.775.407-1.14 1.042-1.14.634 0 .952.41.952 1.14v2.417h.951v-2.417c0-.775.453-1.14 1.043-1.14.634 0 .951.41.951 1.14v2.417h1.043zm14.094-4.378h-1.541v-1.322h-.952v1.322h-.86v.867h.86v2.006c0 1.003.408 1.596 1.496 1.596.408 0 .86-.137 1.178-.32l-.272-.82c-.272.183-.59.228-.816.228-.453 0-.634-.273-.634-.73v-1.96h1.54v-.867zm8.066-.09c-.544 0-.906.273-1.133.637v-.547h-.951v4.378h.951V40.49c0-.73.318-1.14.907-1.14.181 0 .408.045.589.09l.272-.911c-.181-.046-.453-.046-.635-.046zm-12.19.455c-.453-.32-1.088-.456-1.768-.456-1.087 0-1.813.547-1.813 1.414 0 .73.544 1.14 1.496 1.276l.453.046c.499.091.77.228.77.456 0 .32-.362.547-.996.547a2.491 2.491 0 01-1.45-.456l-.454.73c.499.365 1.178.547 1.858.547 1.27 0 1.994-.593 1.994-1.413 0-.776-.589-1.186-1.495-1.323l-.453-.046c-.408-.045-.726-.136-.726-.41 0-.32.318-.502.816-.502.544 0 1.088.229 1.36.365l.408-.775zm25.287-.456c-.543 0-.906.274-1.133.639v-.548h-.951v4.378h.952V40.49c0-.73.317-1.14.906-1.14.181 0 .408.045.589.09l.272-.911c-.181-.046-.453-.046-.635-.046zm-12.145 2.28c0 1.323.906 2.28 2.311 2.28.635 0 1.088-.137 1.541-.502l-.453-.775c-.363.274-.725.41-1.133.41-.77 0-1.314-.547-1.314-1.413 0-.82.544-1.368 1.314-1.413.408 0 .77.136 1.133.41l.453-.775c-.453-.365-.906-.502-1.54-.502-1.406 0-2.312.958-2.312 2.28zm8.792 0v-2.189h-.952v.547c-.317-.41-.77-.638-1.36-.638-1.223 0-2.175.958-2.175 2.28 0 1.323.952 2.28 2.176 2.28.634 0 1.087-.228 1.36-.638v.547h.95v-2.189zm-3.49 0c0-.775.499-1.413 1.315-1.413.77 0 1.314.592 1.314 1.413 0 .775-.544 1.414-1.314 1.414-.816-.046-1.315-.639-1.315-1.414zm-11.375-2.28c-1.269 0-2.175.912-2.175 2.28 0 1.368.906 2.28 2.22 2.28.635 0 1.27-.182 1.768-.593l-.453-.684c-.363.274-.816.456-1.269.456-.59 0-1.178-.273-1.314-1.049h3.217v-.364c.046-1.414-.77-2.326-1.994-2.326zm0 .82c.59 0 .997.366 1.088 1.05h-2.266c.09-.593.499-1.05 1.178-1.05zm23.611 1.46v-3.921h-.951v2.28c-.318-.41-.77-.639-1.36-.639-1.224 0-2.175.958-2.175 2.28 0 1.323.952 2.28 2.175 2.28.634 0 1.088-.228 1.36-.638v.547h.951v-2.189zm-3.49 0c0-.775.5-1.413 1.315-1.413.77 0 1.314.592 1.314 1.413 0 .775-.544 1.414-1.314 1.414-.816-.046-1.314-.639-1.314-1.414zm-31.813 0v-2.189h-.951v.547c-.318-.41-.77-.638-1.36-.638-1.224 0-2.175.958-2.175 2.28 0 1.323.951 2.28 2.175 2.28.634 0 1.088-.228 1.36-.638v.547h.951v-2.189zm-3.535 0c0-.775.499-1.413 1.315-1.413.77 0 1.314.592 1.314 1.413 0 .775-.544 1.414-1.314 1.414-.816-.046-1.315-.639-1.315-1.414z" fill="#000"/><path d="M40.92 5.333H26.644v25.809H40.92V5.332z" fill="#FF5F00"/><path d="M27.55 18.237c0-5.244 2.448-9.895 6.21-12.904A16.152 16.152 0 0023.698 1.82c-9.019 0-16.315 7.342-16.315 16.416 0 9.074 7.296 16.416 16.315 16.416 3.806 0 7.296-1.323 10.06-3.511-3.761-2.964-6.208-7.661-6.208-12.905z" fill="#EB001B"/><path d="M60.18 18.237c0 9.074-7.296 16.416-16.314 16.416a16.152 16.152 0 01-10.061-3.511c3.807-3.01 6.209-7.661 6.209-12.905s-2.448-9.895-6.21-12.904A16.152 16.152 0 0143.867 1.82c9.018 0 16.314 7.387 16.314 16.416z" fill="#F79E1B"/></svg>